HIERARCHY
ROOT Hips
{
	OFFSET -3.958830 18.904000 13.208200
	CHANNELS 6 Xposition Yposition Zposition Zrotation Yrotation Xrotation 
	JOINT LHipJoint
	{
		OFFSET 0.000000 0.000000 0.000000
		CHANNELS 3 Zrotation Yrotation Xrotation
		JOINT LeftUpLeg
		{
			OFFSET 1.800000 -1.400000 0.085000
			CHANNELS 3 Zrotation Yrotation Xrotation
			JOINT LeftLeg
			{
				OFFSET 2.215000 -6.000000 0.000000
				CHANNELS 3 Zrotation Yrotation Xrotation
				JOINT LeftFoot
				{
					OFFSET 2.500000 -6.900000 0.000000
					CHANNELS 3 Zrotation Yrotation Xrotation
					JOINT LeftToeBase
					{
						OFFSET 0.200000 -0.500000 1.950000
						CHANNELS 3 Zrotation Yrotation Xrotation
						End Site
						{
							OFFSET 0.000000 0.000000 0.000000
						}
					}
				}
			}
		}
	}
	JOINT RHipJoint
	{
		OFFSET 0.000000 0.000000 0.000000
		CHANNELS 3 Zrotation Yrotation Xrotation
		JOINT RightUpLeg
		{
			OFFSET -1.800000 -1.400000 0.085000
			CHANNELS 3 Zrotation Yrotation Xrotation
			JOINT RightLeg
			{
				OFFSET -2.215000 -6.000000 0.000000
				CHANNELS 3 Zrotation Yrotation Xrotation
				JOINT RightFoot
				{
					OFFSET -2.500000 -6.900000 0.000000
					CHANNELS 3 Zrotation Yrotation Xrotation
					JOINT RightToeBase
					{
						OFFSET -0.200000 -0.500000 1.950000
						CHANNELS 3 Zrotation Yrotation Xrotation
						End Site
						{
							OFFSET 0.000000 0.000000 0.000000
						}
					}
				}
			}
		}
	}
	JOINT LowerBack
	{
		OFFSET 0.000000 0.000000 0.000000
		CHANNELS 3 Zrotation Yrotation Xrotation
		JOINT Spine
		{
			OFFSET -0.087000 1.940000 -0.288900
			CHANNELS 3 Zrotation Yrotation Xrotation
			JOINT Spine1
			{
				OFFSET 0.000000 1.950000 0.060000
				CHANNELS 3 Zrotation Yrotation Xrotation
				JOINT Neck
				{
					OFFSET 0.000000 0.000000 0.000000
					CHANNELS 3 Zrotation Yrotation Xrotation
					JOINT Neck1
					{
						OFFSET 0.000000 1.600000 0.340000
						CHANNELS 3 Zrotation Yrotation Xrotation
						JOINT Head
						{
							OFFSET 0.000000 1.667000 -0.240000
							CHANNELS 3 Zrotation Yrotation Xrotation
							End Site
							{
								OFFSET 0.000000 0.000000 0.000000
							}
						}
					}
				}
				JOINT LeftShoulder
				{
					OFFSET 0.000000 0.000000 0.000000
					CHANNELS 3 Zrotation Yrotation Xrotation
					JOINT LeftArm
					{
						OFFSET 2.700000 1.550000 -0.730000
						CHANNELS 3 Zrotation Yrotation Xrotation
						JOINT LeftForeArm
						{
							OFFSET 5.450000 0.000000 0.000000
							CHANNELS 3 Zrotation Yrotation Xrotation
							JOINT LeftHand
							{
								OFFSET 3.450000 0.000000 0.000000
								CHANNELS 3 Zrotation Yrotation Xrotation
								JOINT LeftHandIndex1
								{
									OFFSET 0.750000 0.000000 0.000000
									CHANNELS 3 Zrotation Yrotation Xrotation
									End Site
									{
										OFFSET 0.000000 0.000000 0.000000
									}
								}
							}
						}
					}
				}
				JOINT RightShoulder
				{
					OFFSET 0.000000 0.000000 0.000000
					CHANNELS 3 Zrotation Yrotation Xrotation
					JOINT RightArm
					{
						OFFSET -2.700000 1.550000 -0.730000
						CHANNELS 3 Zrotation Yrotation Xrotation
						JOINT RightForeArm
						{
							OFFSET -5.450000 0.000000 0.000000
							CHANNELS 3 Zrotation Yrotation Xrotation
							JOINT RightHand
							{
								OFFSET -3.450000 0.000000 0.000000
								CHANNELS 3 Zrotation Yrotation Xrotation
								JOINT RightHandIndex1
								{
									OFFSET -0.750000 0.000000 0.000000
									CHANNELS 3 Zrotation Yrotation Xrotation
									End Site
									{
										OFFSET 0.000000 0.000000 0.000000
									}
								}
							}
						}
					}
				}
			}
		}
	}
}
MOTION
Frames: 13
Frame Time: 0.016667
1.601690 17.221490 -4.073760 3.753793 -19.567201 7.460324 -15.443721 11.521997 5.383115 23.651967 -2.159558 -26.630784 -37.421283 22.664005 26.661992 1.633211 10.662043 1.096515 -0.217970 -0.179170 -0.377780 18.179312 -9.664254 2.569727 -4.996719 1.344731 -14.180597 6.806884 -2.535960 0.893046 0.324371 -3.067131 3.431403 0.004130 0.741780 0.045320 -3.047114 -1.447328 -8.750893 -9.840221 1.392896 13.472046 4.123300 -0.677271 -13.818244 -2.762404 -4.632880 -11.753253 -8.816324 6.209260 24.031340 1.431340 1.773080 12.490580 22.486769 12.546502 2.738933 -0.879965 -6.155624 1.076032 6.583003 7.851415 -0.373034 -4.503834 3.050548 -0.536950 0.501640 -0.539680 0.218500 -14.664686 -8.966087 4.901701 -7.528909 -7.272764 1.116824 -13.016126 9.281692 -0.689711 2.959468 -1.953532 -0.139230 0.057670 0.073120 0.293750 
1.524190 17.237880 -4.086340 4.084315 -21.556285 5.737502 -15.539916 11.323709 5.685601 25.425419 -1.686613 -26.474662 -43.380962 24.985370 26.049001 1.773031 11.318163 0.891768 -0.211670 -0.213620 -0.309080 18.146820 -9.509322 2.415692 -5.231942 1.105932 -12.820447 7.015258 -2.798514 1.609554 0.270372 -3.096321 3.397467 -0.000540 0.685530 0.019950 -2.916061 -1.600376 -8.839483 -11.058284 1.398438 14.321869 4.738735 -0.645256 -12.530719 -2.721767 -5.024415 -11.436570 -9.872086 6.958689 25.410354 1.474380 2.482780 10.604450 18.940365 10.653532 2.865943 -0.149379 -4.296453 0.579418 6.130054 11.492056 -0.491214 -4.575134 2.809839 -0.409500 0.442480 -0.494190 0.166660 -11.269711 -6.109120 5.485370 -8.851520 -6.629449 1.295281 -13.459580 6.257980 -0.571977 2.975262 -1.727165 -0.193030 0.105230 0.106320 0.220740 
1.457710 17.245430 -4.116280 4.616190 -23.546492 3.230520 -15.648215 11.268006 5.861402 26.445507 -1.453704 -26.201735 -47.943207 27.262728 26.585727 1.874922 11.838117 0.717759 -0.179970 -0.206180 -0.216260 18.098620 -9.346204 2.251641 -5.251799 0.734217 -10.882777 6.481514 -2.980671 2.331495 0.200190 -3.097761 3.376421 0.012430 0.588990 -0.037670 -2.725093 -2.014187 -8.845061 -11.748440 1.610308 15.002105 4.008395 -0.297035 -8.435019 -2.325083 -6.149738 -11.466112 -12.261978 7.595325 26.083897 1.507880 2.830340 7.585990 13.228959 7.730499 3.399692 2.159148 -0.072829 0.059335 7.557198 11.460638 -0.361798 -4.477015 2.788367 -0.261630 0.342180 -0.422210 0.115700 -6.371927 -1.818240 6.353836 -11.323309 -8.945292 1.494396 -12.901158 3.645401 -0.431530 2.959825 -1.532382 -0.245600 0.168380 0.112670 0.146560 
1.399060 17.245100 -4.118700 4.223259 -25.800614 2.168571 -15.717624 11.208817 6.038750 27.598371 -0.993053 -26.425684 -51.787340 28.750641 26.206543 1.951330 12.123530 0.626173 -0.149600 -0.196250 -0.139450 18.079576 -9.220677 2.153833 -4.439383 0.613536 -9.866125 6.223033 -3.146684 3.289782 0.151449 -3.086123 3.361494 0.014030 0.527550 -0.027770 -2.633544 -2.268171 -8.883465 -10.832996 1.425818 15.452372 3.081092 -0.157650 -6.661898 -1.675531 -6.953269 -11.619916 -13.933944 8.536140 26.226656 0.325320 4.340110 5.848730 9.988830 6.373304 3.511721 2.374920 2.206124 -0.176995 8.789134 11.457457 -0.193606 -4.450536 2.796035 -0.182970 0.306120 -0.364080 0.089250 -4.438696 0.478059 6.785680 -12.037673 -8.524209 1.315019 -12.190637 1.865588 -0.385141 2.955297 -1.444247 -0.254020 0.173150 0.106920 0.098550 
1.335830 17.236640 -4.108460 3.998758 -27.910407 1.379750 -15.728441 11.182997 6.125578 27.682135 -0.644616 -26.470722 -54.667015 28.982274 24.877355 2.029120 12.074709 0.652875 -0.099050 -0.129050 -0.091690 18.083552 -9.205502 2.121676 -3.554116 0.451800 -8.958861 5.444213 -3.147661 3.864037 0.100189 -3.058978 3.379389 0.026220 0.470940 -0.043980 -2.636224 -2.321349 -8.916280 -10.455849 1.501737 15.933520 2.951273 -0.011233 -6.337143 -1.336777 -7.324225 -12.201831 -14.925494 9.758222 26.808096 0.679800 5.511070 5.042470 9.203494 5.348272 3.968983 0.768081 2.963772 -0.516200 7.189888 13.313567 -0.292246 -4.401399 2.748819 -0.144850 0.257180 -0.305650 0.106330 -4.197890 1.890500 7.392205 -10.935325 -7.697990 0.985768 -11.792220 1.023436 -0.365816 2.996814 -1.384779 -0.233720 0.171640 0.051510 0.095080 
1.276720 17.229000 -4.072410 3.164895 -29.945518 1.763304 -15.679727 11.132546 6.194387 27.294771 -0.354818 -26.813959 -56.349429 28.178891 22.959444 2.080977 11.864543 0.725756 -0.105090 -0.087890 -0.108410 18.124371 -9.262671 2.180635 -2.052841 0.394776 -8.595544 4.399441 -2.979749 3.983965 0.100152 -3.025070 3.397403 0.034100 0.467480 -0.052830 -2.787277 -2.140096 -8.999040 -9.026107 1.321484 16.683829 2.894665 -0.002807 -9.109426 -1.261372 -7.303811 -12.472516 -15.018237 11.226062 27.183981 1.005220 7.161550 6.086630 11.672009 6.170833 4.036656 -4.363305 0.207943 -0.636529 7.614505 15.818095 0.172484 -4.487920 2.705500 -0.200560 0.268250 -0.299540 0.114040 -6.586315 0.987701 7.291114 -7.723884 -4.145493 0.620098 -11.403224 1.550543 -0.442346 3.053835 -1.355226 -0.205090 0.150260 0.026540 0.121690 
1.211740 17.215730 -4.049380 2.919818 -31.689413 1.032109 -15.704724 11.185808 6.133077 26.272928 -0.416478 -26.637449 -56.687388 27.332302 22.042538 2.040235 11.732252 0.763311 -0.072930 -0.061140 -0.076070 18.105626 -9.218827 2.154077 -1.905861 0.208149 -7.533647 4.877230 -3.221131 4.642819 0.050346 -3.112431 3.365874 0.047630 0.450380 -0.054060 -2.724043 -2.370835 -8.915610 -8.041309 1.678210 15.815367 1.471043 0.669105 -6.152784 -0.792298 -7.965585 -12.662273 -16.437555 11.478938 26.578241 0.996830 7.103420 4.788060 8.172637 4.442865 3.999576 -4.390071 0.092393 -0.690843 9.801012 17.663712 0.666135 -4.456736 2.770655 -0.159710 0.243480 -0.269160 0.121470 -4.024506 3.289329 8.034595 -8.021647 -6.414775 0.644274 -11.188199 1.149060 -0.413779 3.031675 -1.330466 -0.208520 0.175980 0.013650 0.112850 
1.149330 17.199210 -4.020980 2.428159 -33.668148 1.171746 -15.708733 11.197427 6.106131 25.406130 -0.424798 -27.252162 -56.053667 26.652339 21.679257 1.978384 11.602427 0.780956 -0.059620 -0.046720 -0.058650 18.101555 -9.206604 2.190379 -1.267405 0.113562 -7.031728 4.979810 -3.267230 4.571906 0.023893 -3.145052 3.338072 0.058910 0.432130 -0.049010 -2.727353 -2.405653 -8.901242 -7.580767 1.941794 15.586675 1.631908 1.025728 -6.278561 -0.640682 -8.028558 -12.696882 -16.534733 11.936020 26.354030 0.895340 7.721450 4.172420 8.279004 4.524300 4.063417 -7.837393 -0.617098 -0.463070 9.156191 17.503979 0.699717 -4.445346 2.768971 -0.138080 0.232760 -0.252150 0.114870 -4.368671 3.369349 8.066542 -5.521366 -4.980368 0.268869 -12.264873 1.609575 -0.405302 3.030564 -1.335491 -0.211780 0.171630 0.011820 0.101170 
1.079080 17.170370 -4.012530 2.993319 -34.601916 0.247254 -15.834311 11.179960 6.153276 25.378635 -0.608640 -28.587560 -56.730847 27.046215 22.172168 1.959948 11.734070 0.740975 -0.030750 -0.050440 0.007070 18.034912 -9.015772 2.035608 -2.179550 0.022395 -6.261662 5.923554 -3.601730 5.323413 -0.013153 -3.243559 3.301528 0.061660 0.402200 -0.045010 -2.466028 -2.844416 -8.756389 -8.501913 2.411076 13.740301 1.268175 1.523544 -0.859625 0.006743 -8.485193 -12.922166 -17.295326 11.428916 25.065455 -0.511340 7.800550 2.355180 3.225106 2.076079 4.258724 -6.085528 1.589063 -0.526431 8.325969 16.027130 0.317852 -4.351755 2.816174 -0.077340 0.213230 -0.224760 0.105770 -0.831829 6.355117 9.003645 -7.073432 -8.060952 0.483659 -10.938553 1.145962 -0.401462 2.974464 -1.313001 -0.231450 0.191750 0.001560 0.063630 
1.003470 17.153220 -3.996140 3.371283 -36.696508 -0.500841 -15.888226 11.120337 6.206399 25.290351 -0.325974 -29.883642 -57.186372 26.994597 21.923749 1.934559 11.695186 0.719092 0.011500 -0.004600 0.063450 18.011824 -8.958945 1.959050 -2.731733 -0.079266 -5.478497 6.423419 -3.838355 5.811194 -0.064694 -3.329208 3.255899 0.077770 0.333970 -0.037660 -2.377400 -2.911141 -8.699065 -9.172378 3.197098 13.075135 1.235960 2.223765 0.869165 0.406928 -8.676440 -12.883908 -17.634184 11.559857 24.874601 -1.606640 8.579330 0.483120 0.433505 1.103220 4.195897 -5.941400 2.563311 -0.441290 8.040144 13.902324 0.175400 -4.266621 2.856371 -0.037780 0.179060 -0.174690 0.089830 1.046752 7.714847 9.253055 -7.335987 -8.067836 0.484534 -9.907251 0.666186 -0.397984 2.959487 -1.291748 -0.213070 0.177570 -0.017420 0.036380 
0.936700 17.121910 -3.974610 2.851258 -38.612059 -0.309899 -15.930606 10.975908 6.339070 25.535005 -0.109549 -32.248677 -56.854533 26.865077 22.126005 1.901385 11.722674 0.699490 0.021630 0.012200 0.077930 18.014748 -8.889527 1.932164 -2.230490 -0.190258 -4.781659 6.326798 -3.885937 5.787267 -0.087116 -3.399562 3.229622 0.091980 0.339820 -0.010190 -2.392364 -2.866162 -8.715015 -8.633549 3.720247 13.105270 1.092342 2.832603 1.094768 0.702123 -8.709821 -12.631537 -17.285520 11.831902 23.639562 -2.699390 9.501520 -0.325240 -0.842424 1.158647 3.953656 -7.953523 2.366523 -0.294800 9.017323 11.439616 0.278442 -4.269459 2.886697 -0.047280 0.205920 -0.167250 0.089400 1.683667 7.879638 9.124145 -6.766973 -7.291072 0.545887 -8.808501 1.220423 -0.468562 2.919875 -1.293225 -0.206220 0.175530 -0.014940 0.030550 
0.874330 17.089190 -3.947180 2.415087 -40.344060 0.338829 -15.955490 10.830300 6.425249 25.032662 -0.263930 -34.971253 -55.320925 26.320930 22.582035 1.836860 11.679708 0.703693 0.047960 0.052540 0.107590 18.022372 -8.876259 1.902100 -2.024025 -0.193962 -4.568017 6.679400 -4.026475 6.152571 -0.104287 -3.490122 3.192890 0.123890 0.357470 0.035210 -2.454045 -2.723902 -8.668000 -8.104954 4.097069 12.486392 0.588747 3.302804 1.322592 0.889757 -8.346527 -12.010565 -15.960163 11.711989 22.189724 -4.141970 10.327490 -1.225420 -1.767332 1.727632 3.444158 -10.014333 1.711423 -0.191440 10.735364 9.158478 0.416526 -4.311516 2.917902 -0.081550 0.256570 -0.159510 0.098470 2.037641 7.171565 8.631128 -4.705038 -5.137964 0.374213 -9.221990 0.396434 -0.521795 2.917957 -1.322475 -0.189120 0.173030 -0.025440 0.031460 
0.815800 17.043720 -3.914590 1.309231 -41.381458 1.305167 -15.937907 10.745548 6.483634 24.138252 -0.843328 -37.179208 -53.039015 24.839785 22.472630 1.699355 11.479960 0.758666 0.017140 0.013870 0.104360 18.043876 -8.920032 1.923140 -1.306412 -0.206792 -4.437151 7.173568 -4.278310 7.133793 -0.096926 -3.574641 3.173105 0.121210 0.403920 0.043110 -2.577652 -2.588064 -8.666242 -6.450367 3.872683 12.523445 -0.657271 3.447262 0.743799 1.140154 -8.110036 -11.727412 -15.231129 11.885613 21.389191 -4.856630 10.969460 -1.237870 -1.968138 2.091271 3.114897 -12.453309 0.518112 -0.097366 12.231147 8.464326 0.565870 -4.379560 2.883657 -0.089490 0.303350 -0.183920 0.090060 1.654738 6.530004 8.290290 -0.145990 -3.293257 -0.306263 -13.104316 0.450614 -0.458054 2.909309 -1.359304 -0.221460 0.202180 0.000640 0.019820 
